<svg xmlns="http://www.w3.org/2000/svg" viewBox="0 0 100 100">
  <defs>
    <linearGradient id="cardGrad" x1="0%" y1="0%" x2="100%" y2="100%">
      <stop offset="0%" style="stop-color:#fbbf24;stop-opacity:1" />
      <stop offset="100%" style="stop-color:#f59e0b;stop-opacity:1" />
    </linearGradient>
  </defs>
  <!-- Card 1 (back) -->
  <rect x="15" y="20" width="40" height="55" rx="4" fill="#1f2937" stroke="#374151" stroke-width="2" transform="rotate(-10 35 47.5)"/>
  <!-- Card 2 (front) -->
  <rect x="35" y="25" width="40" height="55" rx="4" fill="white" stroke="#374151" stroke-width="2" transform="rotate(5 55 52.5)"/>
  <!-- Spade symbol -->
  <path d="M55 40 C55 35 50 30 50 30 C50 30 45 35 45 40 C45 45 50 48 50 48 C50 48 55 45 55 40 Z M48 50 L52 50 L50 58 Z" fill="#1f2937" transform="translate(5, 0)"/>
  <!-- Chip -->
  <circle cx="75" cy="75" r="18" fill="url(#cardGrad)" stroke="#92400e" stroke-width="2"/>
  <circle cx="75" cy="75" r="12" fill="none" stroke="white" stroke-width="1" opacity="0.5"/>
  <text x="75" y="80" font-size="14" font-weight="bold" fill="white" text-anchor="middle">$</text>
</svg>
